<svg width="12" height="12" viewBox="0 0 12 12" fill="none" xmlns="http://www.w3.org/2000/svg">
<path fill-rule="evenodd" clip-rule="evenodd" d="M8.91667 0.749959H9.79167C10.5971 0.749959 11.25 1.40288 11.25 2.20829V9.79591C11.25 10.6013 10.5971 11.2542 9.79167 11.2542H2.20833C1.40292 11.2542 0.75 10.6013 0.75 9.79591V2.20829C0.75 1.40288 1.40292 0.749959 2.20833 0.749959H3.08333V0.458293C3.08333 0.29721 3.21392 0.166626 3.375 0.166626C3.53608 0.166626 3.66667 0.29721 3.66667 0.458293V0.749959H8.33333V0.458293C8.33333 0.29721 8.46392 0.166626 8.625 0.166626C8.78608 0.166626 8.91667 0.29721 8.91667 0.458293V0.749959ZM8.33333 1.33329H3.66666V1.62496C3.66666 1.78604 3.53608 1.91663 3.37499 1.91663C3.21391 1.91663 3.08333 1.78604 3.08333 1.62496V1.33329H2.20833C1.72508 1.33329 1.33333 1.72504 1.33333 2.20829V3.66663H10.6667V2.20829C10.6667 1.72504 10.2749 1.33329 9.79166 1.33329H8.91666V1.62496C8.91666 1.78604 8.78608 1.91663 8.62499 1.91663C8.46391 1.91663 8.33333 1.78604 8.33333 1.62496V1.33329ZM1.33333 4.24996H10.6667V9.79591C10.6667 10.2792 10.2749 10.6709 9.79166 10.6709H2.20833C1.72508 10.6709 1.33333 10.2792 1.33333 9.79591V4.24996Z" fill="#999999"/>
</svg>
