<svg width="10" height="12" viewBox="0 0 10 12" fill="none" xmlns="http://www.w3.org/2000/svg">
<path fill-rule="evenodd" clip-rule="evenodd" d="M4.80249 11.1727C2.22064 8.7894 0.916992 6.68351 0.916992 4.83333C0.916992 2.57817 2.74516 0.75 5.00033 0.75C7.25549 0.75 9.08366 2.57817 9.08366 4.83333C9.08366 6.68351 7.78001 8.7894 5.19816 11.1727C5.08643 11.2758 4.91422 11.2758 4.80249 11.1727ZM2.66699 4.83333C2.66699 6.122 3.71166 7.16667 5.00033 7.16667C6.28899 7.16667 7.33366 6.122 7.33366 4.83333C7.33366 3.54467 6.28899 2.5 5.00033 2.5C3.71166 2.5 2.66699 3.54467 2.66699 4.83333ZM6.75032 4.83333C6.75032 5.79983 5.96682 6.58333 5.00032 6.58333C4.03382 6.58333 3.25032 5.79983 3.25032 4.83333C3.25032 3.86683 4.03382 3.08333 5.00032 3.08333C5.96682 3.08333 6.75032 3.86683 6.75032 4.83333ZM5.00032 1.33333C6.93332 1.33333 8.50032 2.90034 8.50032 4.83333C8.50032 6.43857 7.34147 8.35395 5.00032 10.5595C2.65917 8.35395 1.50032 6.43857 1.50032 4.83333C1.50032 2.90034 3.06732 1.33333 5.00032 1.33333Z" fill="#999999"/>
</svg>
