<svg width="9" height="14" viewBox="0 0 9 14" fill="none" xmlns="http://www.w3.org/2000/svg">
<path d="M4.5 9.86969L6.10984 8.25986C6.25628 8.11341 6.49372 8.11341 6.64016 8.25986C6.78661 8.40631 6.78661 8.64374 6.64016 8.79019L4.76516 10.6652C4.61872 10.8116 4.38128 10.8116 4.23484 10.6652L2.35983 8.79019C2.21339 8.64374 2.21339 8.40631 2.35983 8.25986C2.50628 8.11341 2.74372 8.11341 2.89017 8.25986L4.5 9.86969Z" fill="#646464"/>
<path d="M4.5 4.13031L6.10984 5.74014C6.25628 5.88659 6.49372 5.88659 6.64016 5.74014C6.78661 5.59369 6.78661 5.35626 6.64016 5.20981L4.76516 3.33481C4.61872 3.18836 4.38128 3.18836 4.23484 3.33481L2.35983 5.20981C2.21339 5.35626 2.21339 5.59369 2.35983 5.74014C2.50628 5.88659 2.74372 5.88659 2.89017 5.74014L4.5 4.13031Z" fill="#646464"/>
</svg>
