<svg width="12" height="12" viewBox="0 0 12 12" fill="none" xmlns="http://www.w3.org/2000/svg">
<path d="M11.76 6.1333C11.76 5.63997 11.72 5.27997 11.6333 4.90665H6V7.13329H9.30664C9.24 7.68664 8.88 8.51997 8.07998 9.07994L8.06877 9.15449L9.84993 10.5343L9.97333 10.5466C11.1066 9.49997 11.76 7.95996 11.76 6.1333Z" fill="#383838"/>
<path d="M5.99991 12C7.61988 12 8.97987 11.4666 9.97323 10.5467L8.07989 9.07997C7.57323 9.43331 6.89322 9.67997 5.99991 9.67997C4.41325 9.67997 3.06659 8.63334 2.58655 7.18668L2.51618 7.19265L0.664113 8.62599L0.639893 8.69332C1.62655 10.6533 3.65322 12 5.99991 12Z" fill="#383838"/>
<path d="M2.58664 7.18665C2.45998 6.81332 2.38667 6.41329 2.38667 5.99998C2.38667 5.58662 2.45998 5.18663 2.57998 4.81331L2.57662 4.7338L0.70134 3.27744L0.639984 3.30662C0.233336 4.11996 0 5.03331 0 5.99998C0 6.96664 0.233336 7.87995 0.639984 8.69329L2.58664 7.18665Z" fill="#383838"/>
<path d="M5.99991 2.31998C7.12655 2.31998 7.88654 2.80665 8.31989 3.21334L10.0132 1.56C8.97325 0.593336 7.61988 0 5.99991 0C3.65322 0 1.62655 1.34666 0.639893 3.30664L2.57988 4.81333C3.06659 3.36666 4.41325 2.31998 5.99991 2.31998Z" fill="#383838"/>
</svg>
