<svg width="14" height="12" viewBox="0 0 14 12" fill="none" xmlns="http://www.w3.org/2000/svg">
<path d="M12.5609 2.99061C12.5698 3.12186 12.5698 3.25313 12.5698 3.38437C12.5698 7.38748 9.68279 12 4.40611 12C2.78046 12 1.27031 11.5031 0 10.6406C0.230974 10.6687 0.453033 10.6781 0.692893 10.6781C2.03425 10.6781 3.26904 10.2 4.25509 9.38439C2.99366 9.35625 1.93655 8.48438 1.57233 7.28437C1.75001 7.31248 1.92766 7.33124 2.11423 7.33124C2.37183 7.33124 2.62947 7.29372 2.8693 7.22813C1.55458 6.94686 0.568506 5.72812 0.568506 4.25624V4.21876C0.950473 4.44376 1.39467 4.58438 1.86545 4.60311C1.09261 4.05935 0.58628 3.13124 0.58628 2.08123C0.58628 1.51874 0.728386 1.00311 0.977133 0.553111C2.38958 2.39061 4.51269 3.59059 6.89339 3.72186C6.84898 3.49686 6.82232 3.26251 6.82232 3.02813C6.82232 1.35936 8.10152 2.11358e-08 9.69162 2.11358e-08C10.5178 2.11358e-08 11.2639 0.365624 11.7881 0.95625C12.4365 0.825006 13.0584 0.571868 13.6091 0.225002C13.3959 0.928143 12.9429 1.51877 12.3477 1.89374C12.9251 1.82815 13.4848 1.65936 14 1.42501C13.6092 2.02499 13.1206 2.55934 12.5609 2.99061Z" fill="#383838"/>
</svg>
