<svg width="8" height="8" viewBox="0 0 8 8" fill="none" xmlns="http://www.w3.org/2000/svg">
<path fill-rule="evenodd" clip-rule="evenodd" d="M4.15439 5.7836L2.41444 6.86921C2.3382 6.91678 2.24278 6.84746 2.26446 6.76025L2.75923 4.76992L1.18911 3.45055C1.12031 3.39273 1.15676 3.28057 1.2464 3.27423L3.29214 3.12976L4.0617 1.22873C4.09542 1.14543 4.21336 1.14543 4.24708 1.22873L5.01664 3.12976L7.06238 3.27423C7.15202 3.28057 7.18847 3.39273 7.11967 3.45055L5.54954 4.76992L6.04431 6.76025C6.066 6.84746 5.97058 6.91678 5.89433 6.86921L4.15439 5.7836Z" fill="#FC4500"/>
<path d="M4.15439 5.7836L2.41444 6.86921C2.3382 6.91678 2.24278 6.84746 2.26446 6.76025L2.75923 4.76992L1.18911 3.45055C1.12031 3.39273 1.15676 3.28057 1.2464 3.27423L3.29214 3.12976L4.0617 1.22873C4.09542 1.14543 4.21336 1.14543 4.24708 1.22873L5.01664 3.12976L7.06238 3.27423C7.15202 3.28057 7.18847 3.39273 7.11967 3.45055L5.54954 4.76992L6.04431 6.76025C6.066 6.84746 5.97058 6.91678 5.89433 6.86921L4.15439 5.7836Z" fill="#FC4500"/>
<path fill-rule="evenodd" clip-rule="evenodd" d="M4.15439 5.7836L2.41444 6.86921C2.3382 6.91678 2.24278 6.84746 2.26446 6.76025L2.75923 4.76992L1.18911 3.45055C1.12031 3.39273 1.15676 3.28057 1.2464 3.27423L3.29214 3.12976L4.0617 1.22873C4.09542 1.14543 4.21336 1.14543 4.24708 1.22873L5.01664 3.12976L7.06238 3.27423C7.15202 3.28057 7.18847 3.39273 7.11967 3.45055L5.54954 4.76992L6.04431 6.76025C6.066 6.84746 5.97058 6.91678 5.89433 6.86921L4.15439 5.7836Z" stroke="#FC4500" stroke-linecap="round"/>
<path d="M4.15439 5.7836L2.41444 6.86921C2.3382 6.91678 2.24278 6.84746 2.26446 6.76025L2.75923 4.76992L1.18911 3.45055C1.12031 3.39273 1.15676 3.28057 1.2464 3.27423L3.29214 3.12976L4.0617 1.22873C4.09542 1.14543 4.21336 1.14543 4.24708 1.22873L5.01664 3.12976L7.06238 3.27423C7.15202 3.28057 7.18847 3.39273 7.11967 3.45055L5.54954 4.76992L6.04431 6.76025C6.066 6.84746 5.97058 6.91678 5.89433 6.86921L4.15439 5.7836Z" stroke="#FC4500" stroke-linecap="round"/>
</svg>
