<svg width="25" height="22" viewBox="0 0 25 22" fill="none" xmlns="http://www.w3.org/2000/svg">
<path d="M20.7103 6.27537C21.5509 5.72465 21.7828 4.97103 21.261 4.4203C20.8552 4.76813 20.4205 4.71016 19.9857 4.44929C19.5509 4.18842 19.0871 3.92755 18.6234 3.72465C18.2755 3.60871 17.8987 3.57972 17.5219 3.49277C17.6379 3.08697 17.7828 2.65219 17.406 2.2174C17.435 2.65219 17.1741 2.8261 16.9132 2.94204C16.3625 3.17393 15.8408 3.11595 15.319 2.85508C14.9132 2.65219 14.5364 2.39132 14.0436 2.47827C14.0436 2.36233 13.9857 2.10146 13.9277 2.04349C13.6668 1.55074 13.406 1.029 12.6813 1.00001C11.7248 0.942041 11.29 1.4348 10.9132 1.98552C10.8263 2.2174 10.7103 2.33335 10.4784 2.4203C9.84075 2.65219 9.23206 2.91306 8.62336 3.17393C7.43495 3.63769 6.5364 4.39132 6.10162 5.63769C5.89872 6.2174 5.57988 6.65219 4.91321 6.73914C4.68133 6.76813 4.47843 6.91306 4.24655 7.029C3.46394 7.37682 2.79727 7.81161 1.92771 8.24639C1.29003 8.56523 0.855244 8.56523 1.05814 9.2319C1.1451 9.55074 1.60887 9.89856 1.72481 10.1884C1.98568 10.9131 2.13061 11.6087 3.00017 11.8116C3.08713 11.8406 3.17408 11.8986 3.20307 11.9855C3.37698 12.5362 3.84075 12.7971 4.3335 12.942C5.1451 13.1739 5.98568 13.3189 6.76829 13.5797C7.95669 13.9275 9.11611 14.3044 9.26104 15.9275L9.60887 14.7681C10.4494 15.4058 11.348 15.8116 12.1306 16.5362C12.9132 17.2319 13.1451 18.1304 13.1741 18.2464C13.2031 18.3333 13.261 19.6667 12.3915 20.942C13.5799 20.942 14.4205 20.3333 15.1161 19.9565C15.6668 19.6667 16.5364 19.2029 16.5364 19.2029C17.9277 18.1884 18.5944 17.6667 18.8842 17.2029C20.0726 16.1015 20.4494 14.3333 20.3045 12.1594C20.8842 12.9131 21.0002 13 20.8842 14.0145C21.4639 13.4058 22.0726 12.1884 22.1886 10.971C22.3915 9.14494 21.9857 7.69566 20.7103 6.27537ZM9.37698 6.44929C9.29003 6.6232 9.05814 6.6232 8.85524 6.6232C8.39148 6.6232 7.92771 6.6232 7.49293 6.65219C7.7538 5.81161 8.47843 5.17393 9.92771 5.11595C9.81177 5.20291 10.8552 4.79711 10.7973 4.8261C10.1016 5.20291 9.72481 5.78262 9.37698 6.44929Z" fill="black"/>
</svg>
