<svg width="22" height="21" viewBox="0 0 22 21" fill="none" xmlns="http://www.w3.org/2000/svg">
<path d="M19.7103 6.27537C20.5509 5.72465 20.7828 4.97103 20.261 4.4203C19.8552 4.76813 19.4205 4.71016 18.9857 4.44929C18.5509 4.18842 18.0871 3.92755 17.6234 3.72465C17.2755 3.60871 16.8987 3.57972 16.5219 3.49277C16.6379 3.08697 16.7828 2.65219 16.406 2.2174C16.435 2.65219 16.1741 2.8261 15.9132 2.94204C15.3625 3.17393 14.8408 3.11595 14.319 2.85508C13.9132 2.65219 13.5364 2.39132 13.0436 2.47827C13.0436 2.36233 12.9857 2.10146 12.9277 2.04349C12.6668 1.55074 12.406 1.029 11.6813 1.00001C10.7248 0.942041 10.29 1.4348 9.91322 1.98552C9.82626 2.2174 9.71032 2.33335 9.47843 2.4203C8.84075 2.65219 8.23206 2.91306 7.62336 3.17393C6.43495 3.63769 5.5364 4.39132 5.10162 5.63769C4.89872 6.2174 4.57988 6.65219 3.91321 6.73914C3.68133 6.76813 3.47843 6.91306 3.24655 7.029C2.46394 7.37682 1.79727 7.81161 0.927708 8.24639C0.290026 8.56523 -0.144756 8.56523 0.0581423 9.2319C0.145099 9.55074 0.608867 9.89856 0.724809 10.1884C0.985679 10.9131 1.13061 11.6087 2.00017 11.8116C2.08713 11.8406 2.17408 11.8986 2.20307 11.9855C2.37698 12.5362 2.84075 12.7971 3.3335 12.942C4.1451 13.1739 4.98568 13.3189 5.76829 13.5797C6.95669 13.9275 8.11611 14.3044 8.26104 15.9275L8.60887 14.7681C9.44945 15.4058 10.348 15.8116 11.1306 16.5362C11.9132 17.2319 12.1451 18.1304 12.1741 18.2464C12.2031 18.3333 12.261 19.6667 11.3915 20.942C12.5799 20.942 13.4205 20.3333 14.1161 19.9565C14.6668 19.6667 15.5364 19.2029 15.5364 19.2029C16.9277 18.1884 17.5944 17.6667 17.8842 17.2029C19.0726 16.1015 19.4494 14.3333 19.3045 12.1594C19.8842 12.9131 20.0002 13 19.8842 14.0145C20.4639 13.4058 21.0726 12.1884 21.1886 10.971C21.3915 9.14494 20.9857 7.69566 19.7103 6.27537ZM8.37698 6.44929C8.29003 6.6232 8.05814 6.6232 7.85524 6.6232C7.39148 6.6232 6.92771 6.6232 6.49293 6.65219C6.7538 5.81161 7.47843 5.17393 8.92771 5.11595C8.81177 5.20291 9.85524 4.79711 9.79727 4.8261C9.10162 5.20291 8.72481 5.78262 8.37698 6.44929Z" fill="white"/>
</svg>
