<svg width="14" height="14" viewBox="0 0 14 14" fill="none" xmlns="http://www.w3.org/2000/svg">
<path d="M7.00004 6.05711L12.5286 0.528514C12.789 0.268165 13.2111 0.268165 13.4714 0.528514C13.7318 0.788864 13.7318 1.21097 13.4714 1.47132L7.94285 6.99992L13.4714 12.5285C13.7318 12.7889 13.7318 13.211 13.4714 13.4713C13.2111 13.7317 12.789 13.7317 12.5286 13.4713L7.00004 7.94273L1.47145 13.4713C1.2111 13.7317 0.788986 13.7317 0.528636 13.4713C0.268287 13.211 0.268287 12.7889 0.528636 12.5285L6.05723 6.99992L0.528636 1.47132C0.268287 1.21097 0.268287 0.788864 0.528636 0.528514C0.788986 0.268165 1.2111 0.268165 1.47145 0.528514L7.00004 6.05711Z" fill="#646464"/>
</svg>
