<svg width="24" height="24" viewBox="0 0 24 24" fill="none" xmlns="http://www.w3.org/2000/svg">
<path d="M22.5601 12.2445C22.5601 11.34 22.4867 10.68 22.3279 9.99561H12.0001V14.0778H18.0623C17.9401 15.0923 17.2801 16.62 15.8134 17.6467L15.7929 17.7833L19.0583 20.313L19.2846 20.3356C21.3623 18.4167 22.5601 15.5933 22.5601 12.2445Z" fill="#4285F4"/>
<path d="M11.9999 23C14.9699 23 17.4632 22.0221 19.2844 20.3355L15.8132 17.6466C14.8844 18.2944 13.6377 18.7466 11.9999 18.7466C9.09104 18.7466 6.62217 16.8278 5.74209 14.1755L5.61309 14.1865L2.21762 16.8143L2.17322 16.9377C3.98209 20.531 7.69765 23 11.9999 23Z" fill="#34A853"/>
<path d="M5.74218 14.1754C5.50996 13.491 5.37557 12.7576 5.37557 11.9999C5.37557 11.242 5.50996 10.5087 5.72996 9.82431L5.72381 9.67854L2.28579 7.00854L2.17331 7.06205C1.42778 8.55318 1 10.2277 1 11.9999C1 13.7721 1.42778 15.4465 2.17331 16.9376L5.74218 14.1754Z" fill="#FBBC05"/>
<path d="M11.9999 5.25331C14.0654 5.25331 15.4587 6.14552 16.2532 6.89113L19.3577 3.86C17.451 2.08778 14.9699 1 11.9999 1C7.69765 1 3.98209 3.46887 2.17322 7.06218L5.72987 9.82444C6.62217 7.17222 9.09104 5.25331 11.9999 5.25331Z" fill="#EB4335"/>
</svg>
