<svg width="20" height="20" viewBox="0 0 20 20" fill="none" xmlns="http://www.w3.org/2000/svg">
<path fill-rule="evenodd" clip-rule="evenodd" d="M3.21125 17.378C3.04853 17.5407 2.78471 17.5407 2.62199 17.378C2.45927 17.2152 2.45927 16.9514 2.62199 16.7887L16.7887 2.62204C16.9514 2.45932 17.2152 2.45932 17.3779 2.62204C17.5406 2.78476 17.5406 3.04858 17.3779 3.21129L3.21125 17.378ZM4.63949 12.9685C4.81157 13.1213 4.82722 13.3846 4.67445 13.5567C4.52167 13.7288 4.25831 13.7444 4.08623 13.5917C3.02941 12.6534 2.20845 11.4753 1.69481 10.1506C1.65723 10.0537 1.65723 9.94627 1.69481 9.84936C3.40935 5.42764 8.28555 3.1306 12.7727 4.60439C12.9913 4.6762 13.1104 4.91164 13.0385 5.13027C12.9667 5.3489 12.7313 5.46792 12.5127 5.39611C8.49734 4.0773 4.13728 6.09072 2.53192 9.99997C3.00027 11.1394 3.72174 12.1537 4.63949 12.9685ZM10.5164 6.7065C10.7438 6.7419 10.8994 6.95493 10.864 7.1823C10.8286 7.40968 10.6156 7.56531 10.3882 7.52991C10.2607 7.51005 10.131 7.5 9.99996 7.5C8.61925 7.5 7.49996 8.61929 7.49996 10C7.49996 10.1297 7.5098 10.258 7.52924 10.3842C7.56426 10.6116 7.40829 10.8244 7.18085 10.8594C6.95341 10.8944 6.74064 10.7385 6.70561 10.511C6.67972 10.3429 6.66663 10.1722 6.66663 10C6.66663 8.15905 8.15901 6.66667 9.99996 6.66667C10.174 6.66667 10.3465 6.68004 10.5164 6.7065ZM9.18988 12.8336C9.15883 13.0616 9.3185 13.2717 9.54652 13.3027C9.69601 13.3231 9.8474 13.3333 9.99994 13.3333C11.8409 13.3333 13.3333 11.8409 13.3333 10C13.3333 9.86555 13.3253 9.73199 13.3095 9.59982C13.2821 9.37134 13.0747 9.2083 12.8462 9.23568C12.6177 9.26305 12.4547 9.47047 12.482 9.69895C12.4939 9.79824 12.4999 9.8987 12.4999 10C12.4999 11.3807 11.3806 12.5 9.99994 12.5C9.88503 12.5 9.77121 12.4923 9.65895 12.477C9.43094 12.4459 9.22093 12.6056 9.18988 12.8336ZM15.3255 6.4433C15.1727 6.61538 15.1883 6.87874 15.3604 7.03151C16.2782 7.84629 16.9996 8.86056 17.468 10C15.8626 13.9093 11.5026 15.9227 7.48724 14.6039C7.26861 14.5321 7.03317 14.6511 6.96136 14.8697C6.88955 15.0884 7.00858 15.3238 7.2272 15.3956C11.7144 16.8694 16.5906 14.5724 18.3051 10.1506C18.3427 10.0537 18.3427 9.94628 18.3051 9.84937C17.7915 8.52471 16.9705 7.34659 15.9137 6.40834C15.7416 6.25556 15.4782 6.27121 15.3255 6.4433Z" fill="#646464"/>
</svg>
