<svg width="14" height="14" viewBox="0 0 14 14" fill="none" xmlns="http://www.w3.org/2000/svg">
<path d="M13.72 7.15571C13.72 6.58016 13.6733 6.16016 13.5722 5.72461H7V8.32236H10.8577C10.78 8.96793 10.36 9.94016 9.42665 10.5935L9.41356 10.6804L11.4916 12.2902L11.6355 12.3046C12.9577 11.0835 13.72 9.28681 13.72 7.15571Z" fill="white"/>
<path d="M6.99993 14.0001C8.8899 14.0001 10.4765 13.3778 11.6355 12.3045L9.42658 10.5934C8.83548 11.0056 8.04213 11.2934 6.99993 11.2934C5.14883 11.2934 3.57773 10.0723 3.01768 8.38452L2.93559 8.39149L0.774839 10.0637L0.746582 10.1423C1.89768 12.4289 4.26213 14.0001 6.99993 14.0001Z" fill="white"/>
<path d="M3.01775 8.38423C2.86997 7.94868 2.78445 7.48198 2.78445 6.99978C2.78445 6.51753 2.86997 6.05088 3.00997 5.61533L3.00606 5.52257L0.81823 3.82349L0.746648 3.85753C0.272225 4.80643 0 5.87201 0 6.99978C0 8.12756 0.272225 9.19308 0.746648 10.142L3.01775 8.38423Z" fill="white"/>
<path d="M6.99993 2.70665C8.31435 2.70665 9.201 3.27442 9.70658 3.7489L11.6821 1.82C10.4688 0.692225 8.8899 0 6.99993 0C4.26213 0 1.89768 1.5711 0.746582 3.85775L3.00991 5.61555C3.57773 3.92777 5.14883 2.70665 6.99993 2.70665Z" fill="white"/>
</svg>
