<svg width="14" height="14" viewBox="0 0 14 14" fill="none" xmlns="http://www.w3.org/2000/svg">
<path d="M7.00156 10.5894C5.01517 10.5894 3.41294 8.98683 3.41294 7C3.41294 5.01317 5.01517 3.41058 7.00156 3.41058C8.98795 3.41058 10.5902 5.01317 10.5902 7C10.5902 8.98683 8.98795 10.5894 7.00156 10.5894ZM7.00156 4.66641C5.7179 4.66641 4.66849 5.71293 4.66849 7C4.66849 8.28707 5.71478 9.33359 7.00156 9.33359C8.28834 9.33359 9.33463 8.28707 9.33463 7C9.33463 5.71293 8.28522 4.66641 7.00156 4.66641ZM11.574 10.7362C11.574 10.2708 11.1992 9.89903 10.737 9.89903C10.2716 9.89903 9.89994 10.2739 9.89994 10.7362C9.89994 11.1986 10.2747 11.5735 10.737 11.5735C11.1992 11.5735 11.574 11.1986 11.574 10.7362ZM13.9508 9.88653C13.8977 11.008 13.6416 12.0015 12.8202 12.8199C12.0019 13.6384 11.0087 13.8946 9.88745 13.9508C8.73185 14.0164 5.26815 14.0164 4.11255 13.9508C2.99442 13.8977 2.00123 13.6415 1.17981 12.8231C0.358394 12.0046 0.10541 11.0112 0.0491913 9.88966C-0.0163971 8.73379 -0.0163971 5.26933 0.0491913 4.11347C0.102287 2.99197 0.358394 1.99855 1.17981 1.18007C2.00123 0.361597 2.9913 0.105433 4.11255 0.049202C5.26815 -0.0164003 8.73185 -0.0164003 9.88745 0.049202C11.0087 0.102309 12.0019 0.358474 12.8202 1.18007C13.6385 1.99855 13.8946 2.99197 13.9508 4.11347C14.0164 5.26933 14.0164 8.73067 13.9508 9.88653ZM12.4579 2.87326C12.2143 2.26096 11.7427 1.78924 11.1274 1.54245C10.206 1.17695 8.01974 1.2613 7.00156 1.2613C5.98338 1.2613 3.79398 1.18007 2.87574 1.54245C2.26358 1.78612 1.79197 2.25784 1.54523 2.87326C1.17981 3.79482 1.26414 5.98159 1.26414 7C1.26414 8.01841 1.18293 10.2083 1.54523 11.1267C1.78885 11.739 2.26046 12.2108 2.87574 12.4575C3.7971 12.8231 5.98338 12.7387 7.00156 12.7387C8.01974 12.7387 10.2091 12.8199 11.1274 12.4575C11.7395 12.2139 12.2112 11.7422 12.4579 11.1267C12.8233 10.2052 12.739 8.01841 12.739 7C12.739 5.98159 12.8233 3.7917 12.4579 2.87326Z" fill="white"/>
</svg>
