<svg width="17" height="14" viewBox="0 0 17 14" fill="none" xmlns="http://www.w3.org/2000/svg">
<path d="M14.6544 3.48905C14.6648 3.64217 14.6648 3.79532 14.6648 3.94844C14.6648 8.61873 11.2966 14 5.14046 14C3.24387 14 1.48203 13.4203 0 12.4141C0.269469 12.4469 0.528539 12.4578 0.808376 12.4578C2.37329 12.4578 3.81388 11.9 4.96427 10.9485C3.4926 10.9156 2.2593 9.89845 1.83438 8.49844C2.04167 8.53123 2.24894 8.55311 2.4666 8.55311C2.76714 8.55311 3.06771 8.50934 3.34752 8.43282C1.81368 8.10467 0.663257 6.68281 0.663257 4.96562V4.92189C1.10888 5.18439 1.62712 5.34845 2.17636 5.3703C1.27471 4.73591 0.683993 3.65311 0.683993 2.4281C0.683993 1.77186 0.849783 1.1703 1.13999 0.645296C2.78784 2.78904 5.26481 4.18902 8.04228 4.34217C7.99048 4.07967 7.95937 3.80626 7.95937 3.53282C7.95937 1.58592 9.45177 2.46585e-08 11.3069 2.46585e-08C12.2707 2.46585e-08 13.1413 0.426561 13.7528 1.11562C14.5093 0.962507 15.2348 0.66718 15.8773 0.262502C15.6286 1.08283 15.1 1.7719 14.4057 2.20937C15.0793 2.13284 15.7323 1.93592 16.3333 1.66251C15.8774 2.36248 15.3074 2.9859 14.6544 3.48905V3.48905Z" fill="white"/>
</svg>
