<svg width="20" height="20" viewBox="0 0 20 20" fill="none" xmlns="http://www.w3.org/2000/svg">
<path d="M11.25 1.875C11.4325 1.875 11.5823 1.81646 11.6994 1.69938C11.8165 1.58229 11.875 1.4325 11.875 1.25V0.625C11.875 0.4425 11.8165 0.292708 11.6994 0.175625C11.5823 0.0585417 11.4325 0 11.25 0C11.0675 0 10.9177 0.0585417 10.8006 0.175625C10.6835 0.292708 10.625 0.4425 10.625 0.625V1.25C10.625 1.4325 10.6835 1.58229 10.8006 1.69938C10.9177 1.81646 11.0675 1.875 11.25 1.875ZM16.5625 4.0625C16.6538 4.0625 16.735 4.04625 16.8063 4.01375C16.8775 3.98125 16.9394 3.9325 16.9919 3.8675L17.4419 3.4375C17.5585 3.30708 17.6169 3.16062 17.6169 2.99813C17.6169 2.83562 17.5585 2.68917 17.4419 2.55875C17.3115 2.44125 17.1648 2.3825 17.0019 2.3825C16.839 2.3825 16.6925 2.44125 16.5625 2.55875L16.1325 3.0075C16.0025 3.125 15.9375 3.26833 15.9375 3.4375C15.9375 3.60667 16.0027 3.75 16.1331 3.8675C16.1852 3.9325 16.2469 3.98125 16.3181 4.01375C16.3894 4.04625 16.4708 4.0625 16.5625 4.0625ZM19.375 8.125H18.75C18.5675 8.125 18.4177 8.18354 18.3006 8.30062C18.1835 8.41771 18.125 8.5675 18.125 8.75C18.125 8.9325 18.1835 9.08229 18.3006 9.19938C18.4177 9.31646 18.5675 9.375 18.75 9.375H19.375C19.5575 9.375 19.7073 9.31646 19.8244 9.19938C19.9415 9.08229 20 8.9325 20 8.75C20 8.5675 19.9415 8.41771 19.8244 8.30062C19.7073 8.18354 19.5575 8.125 19.375 8.125ZM5.5075 3.86687C5.56 3.93229 5.62855 3.98125 5.71313 4.01375C5.79771 4.04625 5.8725 4.0625 5.9375 4.0625C6.0025 4.0625 6.0775 4.04625 6.1625 4.01375C6.2475 3.98125 6.31584 3.9325 6.3675 3.8675C6.4975 3.75 6.5625 3.60667 6.5625 3.4375C6.5625 3.26833 6.4973 3.125 6.36688 3.0075L5.9375 2.55937C5.80709 2.44187 5.66063 2.38313 5.49813 2.38313C5.33563 2.38313 5.18917 2.44187 5.05875 2.55937C4.94167 2.68937 4.88313 2.83583 4.88313 2.99875C4.88313 3.16167 4.94146 3.30813 5.05813 3.43812L5.50813 3.86812L5.5075 3.86687ZM16.5625 10.5081C16.6538 10.2219 16.7288 9.93542 16.7875 9.64875C16.8463 9.36208 16.8754 9.0625 16.875 8.75C16.875 7.96875 16.7285 7.23625 16.4356 6.5525C16.1427 5.86875 15.7423 5.27313 15.2344 4.76562C14.7265 4.25812 14.1306 3.85771 13.4469 3.56437C12.7631 3.27104 12.0308 3.12458 11.25 3.125C10.6379 3.125 10.0519 3.21938 9.49188 3.40812C8.93188 3.59687 8.42084 3.85729 7.95875 4.18937C7.49667 4.52146 7.0898 4.92188 6.73813 5.39062C6.38646 5.85938 6.11959 6.37375 5.9375 6.93375C5.10417 7.01167 4.32938 7.23625 3.61313 7.6075C2.89688 7.97875 2.26875 8.45729 1.72875 9.04313C1.18875 9.62896 0.76542 10.2963 0.458753 11.045C0.152087 11.7938 -0.000829946 12.5913 3.38753e-06 13.4375C3.38753e-06 14.3492 0.172503 15.2021 0.517503 15.9963C0.862503 16.7904 1.33125 17.4838 1.92375 18.0763C2.51625 18.6688 3.20959 19.1375 4.00375 19.4825C4.79792 19.8275 5.65084 20 6.5625 20H15.0588C15.7358 20 16.3706 19.8729 16.9631 19.6187C17.5556 19.3646 18.0731 19.0165 18.5156 18.5744C18.9581 18.1323 19.3065 17.6146 19.5606 17.0212C19.8148 16.4279 19.9419 15.7931 19.9419 15.1169C19.9544 14.5702 19.8794 14.0527 19.7169 13.5644C19.5544 13.076 19.3231 12.6302 19.0231 12.2269C18.7231 11.8235 18.3619 11.4752 17.9394 11.1819C17.5169 10.8885 17.0579 10.664 16.5625 10.5081ZM11.25 4.375C11.8621 4.375 12.4317 4.48896 12.9588 4.71688C13.4858 4.94479 13.9483 5.25396 14.3463 5.64437C14.7442 6.03479 15.0567 6.49708 15.2838 7.03125C15.5108 7.56542 15.6246 8.13833 15.625 8.75C15.625 8.9975 15.599 9.25458 15.5469 9.52125C15.4948 9.78792 15.4363 10.0321 15.3713 10.2537H15.1169C14.6877 10.2537 14.2679 10.3125 13.8575 10.43C13.4471 10.5475 13.0596 10.7167 12.695 10.9375C12.4608 10.3904 12.1581 9.88583 11.7869 9.42375C11.4156 8.96167 10.999 8.55812 10.5369 8.21313C10.0748 7.86812 9.57021 7.58479 9.02313 7.36312C8.47605 7.14146 7.90313 6.99833 7.30438 6.93375C7.65605 6.1525 8.18355 5.53063 8.88688 5.06813C9.59021 4.60563 10.3779 4.37458 11.25 4.375ZM15.1175 18.75H6.5625C5.83334 18.75 5.14646 18.61 4.50188 18.33C3.8573 18.05 3.29417 17.6692 2.8125 17.1875C2.33084 16.7058 1.95 16.1427 1.67 15.4981C1.39 14.8535 1.25 14.1667 1.25 13.4375C1.25 12.7083 1.39 12.0215 1.67 11.3769C1.95 10.7323 2.3275 10.1692 2.8025 9.6875C3.2775 9.20583 3.84084 8.825 4.4925 8.545C5.14417 8.265 5.83417 8.125 6.5625 8.125C7.17459 8.125 7.7573 8.22271 8.31063 8.41813C8.86396 8.61354 9.37167 8.88375 9.83375 9.22875C10.2958 9.57375 10.6931 9.98708 11.0256 10.4688C11.3581 10.9504 11.6023 11.4844 11.7581 12.0706C11.784 12.1615 11.8294 12.2492 11.8944 12.3337C11.9594 12.4183 12.0571 12.4738 12.1875 12.5C12.2788 12.5262 12.3796 12.5262 12.49 12.5C12.6004 12.4738 12.6883 12.4346 12.7538 12.3825C13.0925 12.0963 13.4638 11.8783 13.8675 11.7288C14.2713 11.5792 14.6879 11.5042 15.1175 11.5037C16.12 11.5037 16.976 11.8585 17.6856 12.5681C18.3952 13.2777 18.75 14.1273 18.75 15.1169C18.75 16.1198 18.3952 16.976 17.6856 17.6856C16.976 18.3952 16.1198 18.75 15.1169 18.75H15.1175Z" fill="white"/>
</svg>
