<svg width="20" height="20" viewBox="0 0 20 20" fill="none" xmlns="http://www.w3.org/2000/svg">
<g clip-path="url(#clip0)">
<path d="M0 14.375C0 14.5575 0.0585417 14.7073 0.175625 14.8244C0.292708 14.9415 0.4425 15 0.625 15H6.875C7.0575 15 7.20729 14.9415 7.32438 14.8244C7.44146 14.7073 7.5 14.5575 7.5 14.375C7.5 14.1925 7.44146 14.0427 7.32438 13.9256C7.20729 13.8085 7.0575 13.75 6.875 13.75H0.625C0.4425 13.75 0.292708 13.8085 0.175625 13.9256C0.0585417 14.0427 0 14.1925 0 14.375ZM10 12.5C10.1825 12.5 10.3323 12.4415 10.4494 12.3244C10.5665 12.2073 10.625 12.0575 10.625 11.875C10.625 11.6925 10.5665 11.5427 10.4494 11.4256C10.3323 11.3085 10.1825 11.25 10 11.25H3.75C3.5675 11.25 3.41771 11.3085 3.30063 11.4256C3.18354 11.5427 3.125 11.6925 3.125 11.875C3.125 12.0575 3.18354 12.2073 3.30063 12.3244C3.41771 12.4415 3.5675 12.5 3.75 12.5H10ZM3.125 16.875C3.125 17.0575 3.18354 17.2073 3.30063 17.3244C3.41771 17.4415 3.5675 17.5 3.75 17.5H10C10.1825 17.5 10.3323 17.4415 10.4494 17.3244C10.5665 17.2073 10.625 17.0575 10.625 16.875C10.625 16.6925 10.5665 16.5427 10.4494 16.4256C10.3323 16.3085 10.1825 16.25 10 16.25H3.75C3.5675 16.25 3.41771 16.3085 3.30063 16.4256C3.18354 16.5427 3.125 16.6925 3.125 16.875ZM16.8162 6.93375C16.6733 6.12625 16.4 5.37417 15.9963 4.6775C15.5925 3.98084 15.0879 3.37875 14.4825 2.87125C13.8771 2.36375 13.1935 1.96646 12.4319 1.67938C11.6702 1.3923 10.8596 1.24917 10 1.25C9.28375 1.25 8.59042 1.3575 7.92 1.5725C7.24958 1.7875 6.63104 2.09334 6.06437 2.49C5.49771 2.88667 4.99646 3.36209 4.56063 3.91625C4.12479 4.47042 3.77 5.07896 3.49625 5.74188C3.00125 5.88521 2.53896 6.10334 2.10938 6.39625C1.67979 6.68917 1.30875 7.0375 0.99625 7.44125C0.68375 7.845 0.439583 8.29084 0.26375 8.77875C0.0879167 9.26667 0 9.77792 0 10.3125V10.6838C0 10.8788 0.0683333 11.0283 0.205 11.1325C0.341667 11.2367 0.50125 11.2758 0.68375 11.25C0.87875 11.25 1.02833 11.1817 1.1325 11.045C1.23667 10.9083 1.27583 10.7488 1.25 10.5663V10.3125C1.25 9.46625 1.52667 8.72396 2.08 8.08563C2.63333 7.4473 3.31375 7.06334 4.12125 6.93375C4.25125 6.9075 4.35854 6.85855 4.44313 6.78688C4.52771 6.71521 4.58958 6.62084 4.62875 6.50375C4.81125 5.905 5.07833 5.36125 5.43 4.8725C5.78167 4.38375 6.19167 3.96396 6.66 3.61313C7.12833 3.2623 7.64604 2.98896 8.21313 2.79313C8.78021 2.5973 9.37583 2.49959 10 2.5C10.7292 2.5 11.4225 2.63021 12.08 2.89063C12.7375 3.15105 13.3169 3.50584 13.8181 3.955C14.3194 4.40417 14.7298 4.93813 15.0494 5.55688C15.369 6.17563 15.5608 6.84292 15.625 7.55875C15.625 7.715 15.6804 7.84209 15.7913 7.94C15.9021 8.03792 16.0354 8.09959 16.1912 8.125C16.9075 8.21625 17.5131 8.52875 18.0081 9.0625C18.5031 9.59625 18.7504 10.2213 18.75 10.9375C18.7496 11.6538 18.5087 12.2788 18.0275 12.8125C17.5462 13.3463 16.9342 13.6588 16.1912 13.75H10C9.8175 13.75 9.66771 13.8085 9.55062 13.9256C9.43354 14.0427 9.375 14.1925 9.375 14.375C9.375 14.5575 9.43354 14.7073 9.55062 14.8244C9.66771 14.9415 9.8175 15 10 15H16.3088C16.8425 14.935 17.3342 14.7852 17.7838 14.5506C18.2333 14.316 18.6237 14.0167 18.955 13.6525C19.2862 13.2883 19.5435 12.8748 19.7269 12.4119C19.9102 11.949 20.0012 11.4575 20 10.9375C20 9.97375 19.7037 9.12084 19.1112 8.37875C18.5187 7.63667 17.7537 7.155 16.8162 6.93375Z" fill="white"/>
</g>
<defs>
<clipPath id="clip0">
<rect width="20" height="20" fill="white"/>
</clipPath>
</defs>
</svg>
