<svg width="20" height="20" viewBox="0 0 20 20" fill="none" xmlns="http://www.w3.org/2000/svg">
<path fill-rule="evenodd" clip-rule="evenodd" d="M13.5751 3.67175C13.5958 3.65309 13.6149 3.63207 13.632 3.60875C14.3581 2.61913 15.6314 2.19221 16.8056 2.53835C16.6248 2.74629 16.4779 2.98518 16.3723 3.24807C15.8579 4.52936 16.4795 5.9851 17.7608 6.49954C18.0237 6.60511 18.2979 6.66416 18.5732 6.67732C18.2868 7.23227 17.8345 7.67415 17.279 7.94944C17.2218 7.97782 17.1739 8.01761 17.1368 8.0647C16.8314 7.89243 16.4974 7.76349 16.1346 7.67788C16.006 6.95113 15.76 6.27425 15.3966 5.64725C15.0332 5.02025 14.5791 4.47838 14.0342 4.02163C13.8864 3.89768 13.7333 3.78106 13.5751 3.67175ZM17.8462 8.59106C17.9709 8.70997 18.0889 8.83907 18.2001 8.97837C18.7334 9.64625 19 10.4139 19 11.2812C19.0011 11.7492 18.9192 12.1916 18.7542 12.6082C18.5892 13.0248 18.3576 13.397 18.0595 13.7247C17.7614 14.0525 17.41 14.3219 17.0054 14.5331C16.6007 14.7442 16.1582 14.879 15.6779 14.9375H15.625C15.4847 14.9371 15.3619 14.8872 15.2565 14.7879C15.1512 14.6885 15.0867 14.5685 15.063 14.4279C15.0634 14.2865 15.1133 14.1545 15.2127 14.0319C15.312 13.9092 15.432 13.8361 15.5727 13.8125C16.2169 13.7536 16.7616 13.4782 17.2067 12.9862C17.6519 12.4942 17.8746 11.9259 17.875 11.2812C17.8754 10.6366 17.6528 10.0741 17.2073 9.59375C16.7618 9.11337 16.2167 8.83212 15.5721 8.75C15.4319 8.72712 15.3119 8.67162 15.2121 8.5835C15.1124 8.49537 15.0625 8.381 15.0625 8.24037C15.0047 7.59613 14.832 6.99556 14.5444 6.43869C14.2568 5.88181 13.8874 5.40125 13.4363 4.997C12.9852 4.59275 12.4637 4.27344 11.872 4.03907C11.2802 3.80469 10.6562 3.6875 9.99999 3.6875C9.43824 3.68713 8.90218 3.77507 8.3918 3.95132C7.88143 4.12757 7.41549 4.37357 6.99399 4.68932C6.57249 5.00507 6.20349 5.38288 5.88699 5.82275C5.57049 6.26263 5.33012 6.752 5.16587 7.29088C5.10737 7.39625 5.03706 7.48119 4.95493 7.54569C4.87281 7.61019 4.79087 7.65425 4.70912 7.67788C3.98237 7.7945 3.37 8.14006 2.872 8.71456C2.374 9.28906 2.125 9.95712 2.125 10.7187C2.12537 11.5389 2.40081 12.239 2.95131 12.8191C3.50181 13.3992 4.1815 13.7304 4.99037 13.8125C5.13062 13.8357 5.25062 13.9031 5.35037 14.0144C5.45012 14.1258 5.49999 14.2636 5.49999 14.4279C5.47674 14.5685 5.40943 14.6945 5.29806 14.8059C5.18668 14.9172 5.04887 14.9611 4.88462 14.9375C4.33412 14.8786 3.8215 14.7292 3.34675 14.4892C2.872 14.2492 2.46175 13.9417 2.116 13.5667C1.77025 13.1917 1.49781 12.761 1.29869 12.2746C1.09956 11.7882 1 11.2696 1 10.7187C1 10.2376 1.07912 9.7775 1.23737 9.33837C1.39562 8.89925 1.61537 8.498 1.89662 8.13462C2.17787 7.77125 2.51181 7.45775 2.89844 7.19413C3.28506 6.9305 3.70112 6.73419 4.14662 6.60519C4.393 6.00856 4.71231 5.46088 5.10456 4.96213C5.49681 4.46338 5.94793 4.0355 6.45793 3.6785C6.96793 3.32151 7.52462 3.04626 8.12799 2.85276C8.73137 2.65926 9.35536 2.56251 9.99999 2.56251C10.7736 2.56251 11.5032 2.69151 12.1887 2.94951C12.4318 3.04102 12.6661 3.14504 12.8916 3.26157C12.9043 3.21043 12.927 3.16086 12.9601 3.11575C13.9648 1.74653 15.782 1.21507 17.38 1.85666C17.5198 1.91279 17.6553 1.97681 17.7861 2.04838C18.0656 2.20123 18.0772 2.59835 17.8071 2.76722C17.5103 2.95282 17.279 3.2263 17.1456 3.55857C16.8027 4.41276 17.2171 5.38325 18.0713 5.72622C18.4036 5.85962 18.761 5.8817 19.1004 5.79565C19.4091 5.71736 19.6879 6.00034 19.6051 6.30789C19.5663 6.45189 19.5188 6.59408 19.4627 6.73387C19.1433 7.52933 18.572 8.17618 17.8462 8.59106ZM10.5625 13.8125V18.875C10.5625 19.0392 10.5098 19.174 10.4044 19.2794C10.2991 19.3848 10.1642 19.4375 9.99999 19.4375C9.83574 19.4375 9.70093 19.3848 9.59555 19.2794C9.49018 19.174 9.43749 19.0392 9.43749 18.875V13.8125C9.43749 13.6482 9.49018 13.5134 9.59555 13.4081C9.70093 13.3027 9.83574 13.25 9.99999 13.25C10.1642 13.25 10.2991 13.3027 10.4044 13.4081C10.5098 13.5134 10.5625 13.6482 10.5625 13.8125ZM7.74999 12.125V17.1875C7.74999 17.3517 7.6973 17.4866 7.59193 17.5919C7.48655 17.6973 7.35174 17.75 7.18749 17.75C7.02324 17.75 6.88843 17.6973 6.78306 17.5919C6.67768 17.4866 6.62499 17.3517 6.62499 17.1875V12.125C6.62499 11.9607 6.67768 11.8259 6.78306 11.7206C6.88843 11.6152 7.02324 11.5625 7.18749 11.5625C7.35174 11.5625 7.48655 11.6152 7.59193 11.7206C7.6973 11.8259 7.74999 11.9607 7.74999 12.125ZM13.375 12.125V17.1875C13.375 17.3517 13.3223 17.4866 13.2169 17.5919C13.1115 17.6973 12.9767 17.75 12.8125 17.75C12.6482 17.75 12.5134 17.6973 12.408 17.5919C12.3027 17.4866 12.25 17.3517 12.25 17.1875V12.125C12.25 11.9607 12.3027 11.8259 12.408 11.7206C12.5134 11.6152 12.6482 11.5625 12.8125 11.5625C12.9767 11.5625 13.1115 11.6152 13.2169 11.7206C13.3223 11.8259 13.375 11.9607 13.375 12.125Z" fill="white"/>
</svg>
