<svg width="18" height="18" viewBox="0 0 18 18" fill="none" xmlns="http://www.w3.org/2000/svg">
<path fill-rule="evenodd" clip-rule="evenodd" d="M7.46249 5.25C7.28877 6.10584 6.53211 6.75 5.625 6.75C4.71789 6.75 3.96123 6.10584 3.78751 5.25H2.625C2.41789 5.25 2.25 5.08211 2.25 4.875C2.25 4.66789 2.41789 4.5 2.625 4.5H3.78751C3.96123 3.64416 4.71789 3 5.625 3C6.53211 3 7.28877 3.64416 7.46249 4.5H15.375C15.5821 4.5 15.75 4.66789 15.75 4.875C15.75 5.08211 15.5821 5.25 15.375 5.25H7.46249ZM12.375 10.5C13.2821 10.5 14.0388 9.85584 14.2125 9H15.375C15.5821 9 15.75 8.8321 15.75 8.625C15.75 8.41789 15.5821 8.25 15.375 8.25H14.2125C14.0388 7.39416 13.2821 6.75 12.375 6.75C11.4679 6.75 10.7112 7.39416 10.5375 8.25H2.625C2.41789 8.25 2.25 8.41789 2.25 8.625C2.25 8.8321 2.41789 9 2.625 9H10.5375C10.7112 9.85584 11.4679 10.5 12.375 10.5ZM7.875 14.25C8.78211 14.25 9.53877 13.6058 9.71249 12.75H15.375C15.5821 12.75 15.75 12.5821 15.75 12.375C15.75 12.1679 15.5821 12 15.375 12H9.71249C9.53877 11.1442 8.78211 10.5 7.875 10.5C6.96789 10.5 6.21123 11.1442 6.03751 12H2.625C2.41789 12 2.25 12.1679 2.25 12.375C2.25 12.5821 2.41789 12.75 2.625 12.75H6.03751C6.21123 13.6058 6.96789 14.25 7.875 14.25ZM6.75 4.875C6.75 5.49633 6.24632 6 5.625 6C5.00368 6 4.5 5.49633 4.5 4.875C4.5 4.25368 5.00368 3.75 5.625 3.75C6.24632 3.75 6.75 4.25368 6.75 4.875ZM12.375 9.75C12.9963 9.75 13.5 9.24632 13.5 8.625C13.5 8.00368 12.9963 7.5 12.375 7.5C11.7537 7.5 11.25 8.00368 11.25 8.625C11.25 9.24632 11.7537 9.75 12.375 9.75ZM9 12.375C9 12.9963 8.49632 13.5 7.875 13.5C7.25368 13.5 6.75 12.9963 6.75 12.375C6.75 11.7537 7.25368 11.25 7.875 11.25C8.49632 11.25 9 11.7537 9 12.375Z" fill="#383838"/>
</svg>
